#!OML:ASF X:\für Bonn\!DataBase\2005_08_11_Bastian_Final\c3d\Bastian.ASF
:FULLY-SPECIFIED
:DEGREES
241
root 0.456053 17.2477 1.09616 156.407 -38.8188 -168.735
lowerback 12.9264 -3.30871 9.23963
upperback 6.08371 -4.00668 3.60838
thorax -1.09124 -2.21267 -0.833594
lowerneck 2.74165 -14.041 -2.352
upperneck -13.5912 -18.3008 14.946
head -2.83914 -9.959 5.25556
rclavicle -2.03754e-015 -4.69132e-014
rhumerus -44.1389 5.58048 -82.4111
rradius 67.3608
rwrist -245.409
rhand 0.154817 -17.0968
rfingers 7.12502
rthumb 25.7387 -405.376
lclavicle -2.03754e-015 -4.69132e-014
lhumerus 338.024 -17.2965 -271.502
lradius 64.5418
lwrist -151.42
lhand -26.0505 15.187
lfingers 7.12502
lthumb 0.496974 45.1662
rfemur -3.69435 -4.176 29.9917
rtibia 36.3964
rfoot -11.7743 -2.33313
rtoes -0.95403
lfemur 12.2127 -2.17856 -2.72559
ltibia 49.0505
lfoot -7.51516 -11.0711
ltoes -32.4881
242
root 0.458435 17.2537 1.14691 156.82 -38.0539 -168.905
lowerback 12.7323 -3.30653 9.33204
upperback 6.06592 -4.01228 3.52623
thorax -1.01714 -2.20792 -0.980943
lowerneck 2.53427 -13.8963 -2.22532
upperneck -13.409 -18.1278 14.7778
head -2.79493 -9.86107 5.16711
rclavicle 4.49502e-014 3.49861e-014
rhumerus -44.8529 3.32195 -82.2448
rradius 65.0598
rwrist -245.955
rhand 0.68732 -17.1145
rfingers 7.12502
rthumb 26.2485 -405.319
lclavicle 4.49502e-014 3.49861e-014
lhumerus 336.106 -14.0327 -271.934
lradius 62.5735
lwrist -152.975
lhand -25.7526 13.9287
lfingers 7.12502
lthumb 0.784708 43.907
rfemur -4.1399 -3.77461 30.0288
rtibia 36.4066
rfoot -11.5551 -1.88972
rtoes -1.34751
lfemur 12.9905 -2.72318 -3.35292
ltibia 47.9634
lfoot -7.48125 -11.281
ltoes -31.6456
243
root 0.461737 17.2585 1.19923 157.228 -37.2769 -169.056
lowerback 12.5422 -3.30115 9.43254
upperback 6.05386 -4.01457 3.45512
thorax -0.938079 -2.20192 -1.12158
lowerneck 2.29797 -13.7578 -2.15561
upperneck -13.1935 -17.9668 14.6338
head -2.72657 -9.76579 5.08775
rclavicle 8.4235e-015 4.92986e-014
rhumerus -45.5795 1.24189 -81.9341
rradius 62.9266
rwrist -246.955
rhand 1.25645 -16.9107
rfingers 7.12502
rthumb 26.7933 -405.033
lclavicle 8.4235e-015 4.92986e-014
lhumerus 334.335 -10.9195 -272.653
lradius 60.6746
lwrist -154.315
lhand -25.2231 12.8259
lfingers 7.12502
lthumb 1.29611 42.8017
rfemur -4.61638 -3.40456 30.0685
rtibia 36.4471
rfoot -11.334 -1.40988
rtoes -1.4803
lfemur 13.7817 -3.28341 -3.99759
ltibia 46.7994
lfoot -7.54061 -11.2744
ltoes -30.9738
244
root 0.467219 17.2612 1.25273 157.654 -36.4854 -169.195
lowerback 12.3659 -3.29148 9.5017
upperback 6.01013 -4.00763 3.40187
thorax -0.896617 -2.19304 -1.2255
lowerneck 2.12492 -13.6162 -2.12935
upperneck -13.0097 -17.7988 14.5134
head -2.67173 -9.6688 5.02819
rclavicle 8.39865e-015 -5.56597e-015
rhumerus -46.4237 -0.700517 -81.4656
rradius 61.0692
rwrist -248.25
rhand 1.94804 -16.4607
rfingers 7.12502
rthumb 27.4549 -404.48
lclavicle 8.39865e-015 -5.56597e-015
lhumerus 332.565 -7.86495 -273.594
lradius 58.9461
lwrist -155.684
lhand -24.6128 11.9775
lfingers 7.12502
lthumb 1.88553 41.9489
rfemur -5.15675 -2.99182 30.1325
rtibia 36.5384
rfoot -11.1239 -0.950148
rtoes -1.58741
lfemur 14.5545 -3.80324 -4.61754
ltibia 45.5636
lfoot -7.79524 -11.1796
ltoes -30.723
245
root 0.475507 17.2605 1.30873 158.076 -35.6918 -169.329
lowerback 12.2021 -3.28648 9.52263
upperback 5.99316 -4.01741 3.37036
thorax -0.830721 -2.19423 -1.2782
lowerneck 1.85066 -13.466 -2.08545
upperneck -12.791 -17.6245 14.3419
head -2.59703 -9.56324 4.94208
rclavicle -2.65874e-015 9.54166e-015
rhumerus -47.2481 -2.41169 -80.9001
rradius 59.3856
rwrist -249.849
rhand 2.77623 -15.9464
rfingers 7.12502
rthumb 28.2467 -403.837
lclavicle -2.65874e-015 9.54166e-015
lhumerus 330.879 -4.58192 -274.753
lradius 57.2854
lwrist -157.168
lhand -24.1601 11.4971
lfingers 7.12502
lthumb 2.32276 41.4642
rfemur -5.7466 -2.59415 30.2014
rtibia 36.6865
rfoot -10.924 -0.483962
rtoes -1.77464
lfemur 15.3354 -4.35077 -5.25188
ltibia 44.2504
lfoot -8.21019 -10.9379
ltoes -30.347
246
root 0.486286 17.2545 1.36651 158.493 -34.8808 -169.469
lowerback 12.0693 -3.27148 9.51254
upperback 5.96747 -4.01136 3.33548
thorax -0.788192 -2.1886 -1.31738
lowerneck 1.63573 -13.3049 -2.07686
upperneck -12.6067 -17.4319 14.2345
head -2.5337 -9.45388 4.88597
rclavicle 1.5207e-014 -3.97569e-016
rhumerus -48.1165 -3.91988 -80.2677
rradius 57.8988
rwrist -251.584
rhand 3.75523 -15.3742
rfingers 7.12502
rthumb 29.182 -403.107
lclavicle 1.5207e-014 -3.97569e-016
lhumerus 329.191 -1.26927 -276.123
lradius 55.7262
lwrist -158.675
lhand -23.917 11.1836
lfingers 7.12502
lthumb 2.55752 41.1481
rfemur -6.37484 -2.15921 30.2724
rtibia 36.8978
rfoot -10.7378 -0.0382501
rtoes -1.9307
lfemur 16.1325 -4.85368 -5.87192
ltibia 42.8671
lfoot -8.76741 -10.6377
ltoes -30.0797
247
root 0.501023 17.2441 1.42755 158.88 -34.0558 -169.545
lowerback 11.9803 -3.26336 9.5171
upperback 5.94051 -4.00989 3.325
thorax -0.76964 -2.18757 -1.33559
lowerneck 1.34586 -13.146 -2.06485
upperneck -12.3754 -17.2471 14.0966
head -2.44663 -9.3433 4.81238
rclavicle 1.0553e-013 2.98177e-014
rhumerus -48.9256 -5.20378 -79.5719
rradius 56.5003
rwrist -253.388
rhand 4.80053 -14.7924
rfingers 7.12502
rthumb 30.1797 -402.347
lclavicle 1.0553e-013 2.98177e-014
lhumerus 327.512 2.05189 -277.678
lradius 54.2114
lwrist -160.143
lhand -23.8574 11.0868
lfingers 7.12502
lthumb 2.61503 41.0506
rfemur -7.05205 -1.74206 30.4058
rtibia 37.1555
rfoot -10.5457 0.410653
rtoes -1.99736
lfemur 16.9024 -5.32545 -6.39432
ltibia 41.4239
lfoot -9.37372 -10.296
ltoes -29.627
248
root 0.518708 17.2312 1.49031 159.271 -33.2342 -169.624
lowerback 11.8817 -3.25483 9.47005
upperback 5.93084 -4.01762 3.32128
thorax -0.725386 -2.1916 -1.31859
lowerneck 1.07656 -12.9797 -2.04738
upperneck -12.1868 -17.0496 13.9768
head -2.37516 -9.23043 4.74814
rclavicle 3.23025e-015 2.34566e-014
rhumerus -49.6979 -6.11309 -78.9224
rradius 55.2508
rwrist -255.381
rhand 5.88326 -14.322
rfingers 7.12502
rthumb 31.2121 -401.683
lclavicle 3.23025e-015 2.34566e-014
lhumerus 325.854 5.29397 -279.404
lradius 52.6869
lwrist -161.46
lhand -23.8976 11.0948
lfingers 7.12502
lthumb 2.57629 41.059
rfemur -7.75631 -1.27502 30.5443
rtibia 37.4379
rfoot -10.3665 0.823169
rtoes -2.10048
lfemur 17.6472 -5.74333 -6.87394
ltibia 39.9418
lfoot -10.0641 -9.99045
ltoes -29.0662
249
root 0.53741 17.2181 1.55552 159.668 -32.4065 -169.696
lowerback 11.7951 -3.24825 9.43403
upperback 5.91233 -4.02254 3.3012
thorax -0.698541 -2.19377 -1.32393
lowerneck 0.798023 -12.8165 -2.00998
upperneck -11.9872 -16.8573 13.8602
head -2.29975 -9.1209 4.6813
rclavicle -7.62339e-014 3.26007e-014
rhumerus -50.3446 -6.76209 -78.3184
rradius 53.9277
rwrist -257.467
rhand 6.83996 -13.8878
rfingers 7.12502
rthumb 32.1233 -401.069
lclavicle -7.62339e-014 3.26007e-014
lhumerus 324.179 8.36295 -281.299
lradius 51.0566
lwrist -162.496
lhand -23.9192 11.1876
lfingers 7.12502
lthumb 2.55538 41.152
rfemur -8.4761 -0.771194 30.6944
rtibia 37.7037
rfoot -10.1503 1.18862
rtoes -2.22737
lfemur 18.3464 -6.08295 -7.29363
ltibia 38.4511
lfoot -10.7785 -9.76483
ltoes -28.2913
250
root 0.558528 17.2044 1.62298 160.009 -31.5558 -169.694
lowerback 11.7456 -3.2449 9.42917
upperback 5.9009 -4.02751 3.29435
thorax -0.68444 -2.19732 -1.33043
lowerneck 0.541509 -12.6373 -1.90327
upperneck -11.8278 -16.6414 13.7202
head -2.24974 -9.0041 4.60385
rclavicle 7.70042e-014 5.92378e-014
rhumerus -50.8614 -7.18994 -77.7562
rradius 52.5292
rwrist -259.623
rhand 7.54389 -13.4733
rfingers 7.12502
rthumb 32.7932 -400.517
lclavicle 7.70042e-014 5.92378e-014
lhumerus 322.523 11.1104 -283.331
lradius 49.2014
lwrist -163.064
lhand -23.8229 11.3027
lfingers 7.12502
lthumb 2.64839 41.2661
rfemur -9.165 -0.175112 30.929
rtibia 37.9293
rfoot -9.89965 1.48803
rtoes -2.1205
lfemur 19.0197 -6.3399 -7.56995
ltibia 36.9683
lfoot -11.5587 -9.61064
ltoes -27.4777
251
root 0.580047 17.1932 1.69255 160.347 -30.7134 -169.668
lowerback 11.672 -3.24565 9.41597
upperback 5.90722 -4.04715 3.31708
thorax -0.636954 -2.2089 -1.30184
lowerneck 0.250038 -12.4576 -1.85157
upperneck -11.6655 -16.4263 13.595
head -2.18641 -8.88533 4.53521
rclavicle -4.4975e-014 7.95139e-016
rhumerus -51.2159 -7.39004 -77.211
rradius 51.0356
rwrist -261.857
rhand 7.93664 -13.0608
rfingers 7.12502
rthumb 33.1668 -400.026
lclavicle -4.4975e-014 7.95139e-016
lhumerus 320.935 13.6134 -285.392
lradius 47.0447
lwrist -163.164
lhand -23.5333 11.5547
lfingers 7.12502
lthumb 2.92811 41.5143
rfemur -9.84385 0.523208 31.195
rtibia 38.1035
rfoot -9.62869 1.6659
rtoes -2.30454
lfemur 19.6334 -6.51262 -7.75731
ltibia 35.502
lfoot -12.348 -9.54661
ltoes -26.4566
252
root 0.602976 17.1816 1.7646 160.639 -29.8524 -169.601
lowerback 11.6357 -3.2499 9.43068
upperback 5.93615 -4.06954 3.33272
thorax -0.587394 -2.22226 -1.29411
lowerneck -0.116872 -12.2737 -1.70458
upperneck -11.2065 -16.2729 13.0791
head -2.30273 -8.75803 4.80699
rclavicle -2.80535e-014 -6.83819e-014
rhumerus -51.4251 -7.42752 -76.7456
rradius 49.4915
rwrist -264.157
rhand 8.09305 -12.5361
rfingers 7.12502
rthumb 33.3155 -399.469
lclavicle -2.80535e-014 -6.83819e-014
lhumerus 319.41 15.7365 -287.5
lradius 44.6672
lwrist -162.767
lhand -22.9999 11.8562
lfingers 7.12502
lthumb 3.44315 41.8081
rfemur -10.4723 1.32097 31.5114
rtibia 38.2303
rfoot -9.32354 1.76218
rtoes -2.6328
lfemur 20.2465 -6.67053 -7.89564
ltibia 34.055
lfoot -13.1604 -9.48098
ltoes -25.5066
